<?xml version="1.0" encoding="UTF-8"?><svg id="uuid-3d5b9211-6289-49d9-82e5-4a24cd011e01" xmlns="http://www.w3.org/2000/svg" viewBox="0 0 265.55 134.37"><defs><style>.uuid-ec19d7a7-56a6-4af8-a5b2-608d29a3b9a0{stroke-width:0px;}</style></defs><path class="uuid-ec19d7a7-56a6-4af8-a5b2-608d29a3b9a0" d="m56.9,80.06l20.83,26.69h41.68v27.62h26.69V0h-26.69l-62.51,80.06Zm62.51,0h-28.66l28.66-36.7v36.7Z"/><polygon class="uuid-ec19d7a7-56a6-4af8-a5b2-608d29a3b9a0" points="26.69 53.38 26.69 26.69 89.24 26.69 110.09 0 0 0 0 106.76 26.69 106.76 26.69 80.07 47.54 80.07 68.39 53.38 26.69 53.38"/><polygon class="uuid-ec19d7a7-56a6-4af8-a5b2-608d29a3b9a0" points="244.7 26.69 265.55 0 155.46 0 155.46 106.76 182.15 106.76 182.15 80.07 203 80.07 223.85 53.38 182.15 53.38 182.15 26.69 244.7 26.69"/></svg>